<svg width="18" height="18" viewBox="0 0 18 18" fill="none" xmlns="http://www.w3.org/2000/svg"><path d="M0 3.75C0 2.50898 1.00898 1.5 2.25 1.5H15.75C16.991 1.5 18 2.50898 18 3.75V6C18 7.24102 16.991 8.25 15.75 8.25H5.34375V13.0312C5.34375 13.8082 5.97305 13.875 6.75 13.875H7.9588L7.875 14.5C7.875 13.259 8.75898 12.5 10 12.5H13C14.241 12.5 15 13.259 15 14.5V15.375C15 16.616 15.241 17.25 14 17.25H9C7.75898 17.25 7.875 17.378 7.875 16.1369V15.375H6.75C5.04141 15.375 3.65625 14.7398 3.65625 13.0312V8.25H2.25C1.00898 8.25 0 7.24102 0 6V3.75Z" fill="black"/><circle cx="11.5" cy="10.5" r="1.5" fill="black"/></svg>
