<svg width="18" height="18" viewBox="0 0 18 18" fill="none" xmlns="http://www.w3.org/2000/svg">
<path d="M0 3.375C0 2.13398 1.00898 1.125 2.25 1.125H15.75C16.991 1.125 18 2.13398 18 3.375V5.625C18 6.86602 16.991 7.875 15.75 7.875H5.34375V11.25C5.34375 12.027 5.97305 12.6562 6.75 12.6562H7.875V12.375C7.875 11.134 8.88398 10.125 10.125 10.125H15.75C16.991 10.125 18 11.134 18 12.375V14.625C18 15.866 16.991 16.875 15.75 16.875H10.125C8.88398 16.875 7.875 15.866 7.875 14.625V14.3438H6.75C5.04141 14.3438 3.65625 12.9586 3.65625 11.25V7.875H2.25C1.00898 7.875 0 6.86602 0 5.625V3.375ZM15.75 11.8125H10.125C9.81562 11.8125 9.5625 12.0656 9.5625 12.375V14.625C9.5625 14.9344 9.81562 15.1875 10.125 15.1875H15.75C16.0594 15.1875 16.3125 14.9344 16.3125 14.625V12.375C16.3125 12.0656 16.0594 11.8125 15.75 11.8125Z" fill="black"/>
</svg>
