<svg width="13" height="7" viewBox="0 0 13 7" fill="none" xmlns="http://www.w3.org/2000/svg">
<g clip-path="url(#clip0_353_21)">
<path opacity="0.75" d="M12.7613 2.92618C13.0787 3.24357 13.0787 3.759 12.7613 4.07638L10.3238 6.51388C10.0064 6.83126 9.49102 6.83126 9.17363 6.51388C8.85625 6.1965 8.85625 5.68107 9.17363 5.36368L10.2248 4.31251H6.5V2.68751H10.2248L9.17363 1.63634C8.85625 1.31896 8.85625 0.803528 9.17363 0.486145C9.49102 0.168762 10.0064 0.168762 10.3238 0.486145L12.7613 2.92365V2.92618Z" fill="black"/>
<path opacity="0.4" d="M0.23867 2.92618C-0.0787125 3.24357 -0.0787125 3.759 0.23867 4.07638L2.67617 6.51388C2.99355 6.83126 3.50898 6.83126 3.82637 6.51388C4.14375 6.1965 4.14375 5.68107 3.82637 5.36368L2.77519 4.31251H6.5V2.68751H2.77519L3.82637 1.63634C4.14375 1.31896 4.14375 0.803528 3.82637 0.486145C3.50898 0.168762 2.99355 0.168762 2.67617 0.486145L0.23867 2.92365V2.92618Z" fill="black"/>
</g>
<defs>
<clipPath id="clip0_353_21">
<rect width="13" height="7" fill="white"/>
</clipPath>
</defs>
</svg>
