<svg width="18" height="17" viewBox="0 0 18 17" xmlns="http://www.w3.org/2000/svg"><g clip-path="url(#clip0_345_11)"><path d="M0.125 6.5C0.125 5.25898 1.13398 4.5 2.375 4.5H8C9.24102 4.5 10 5.25898 10 6.5V9.34376C10 10.5848 9.61602 10.3438 8.375 10.3438H5.93674V12.2188C5.93674 12.9957 5.72305 13.5 6.5 13.5L7 13.5C7 12.259 7.25898 12.2188 8.5 12.2188H16C17.241 12.2188 17.75 12.259 17.75 13.5V15C17.75 16.241 17.241 16 16 16H8.5C7.25898 16 7 16.241 7 15V14.7188H5.875C4.16641 14.7188 4 13.9274 4 12.2188V10.3438H2.375C1.13398 10.3438 0.125 10.5848 0.125 9.34376V6.5Z"/><circle cx="5" cy="2" r="2" /></g><defs><clipPath id="clip0_345_11"><rect width="18" height="17" /></clipPath></defs></svg>
