<svg width="16" height="16" viewBox="0 0 16 16" fill="none" xmlns="http://www.w3.org/2000/svg">
<g clip-path="url(#clip0_1_9)">
<circle cx="8" cy="8" r="8" fill="#FF5A00"/>
<path d="M4.11712 9.49305L3.99083 9.59902C3.79322 9.76484 3.49609 9.73359 3.32437 9.52894L1.67172 7.55939C1.54648 7.41014 1.51904 7.20242 1.60499 7.03329C1.69093 6.86415 1.86979 6.76651 2.0614 6.78666L3.2166 6.90813C3.10386 4.56877 5.16932 2.3909 7.5893 2.64676C10.0191 2.90226 11.8499 5.08415 11.6796 7.5214C11.5093 9.95865 9.40245 11.7265 6.97265 11.471C6.62554 11.4345 6.36344 11.1221 6.38777 10.774C6.4121 10.4258 6.76004 10.5362 7.10715 10.5727C8.84272 10.7552 10.3015 9.12877 10.4232 7.38788C10.5448 5.64699 9.23689 4.08827 7.50132 3.90578C5.77408 3.72416 4.21522 5.57553 4.47325 7.03886L5.61585 7.16041C5.80746 7.18056 5.97016 7.31411 6.03139 7.49872C6.09261 7.68333 6.03675 7.88229 5.89263 8.00322L4.11712 9.49305Z" fill="white"/>
<path d="M12.4707 13.1479C12.591 13.1955 12.7305 13.173 12.8262 13.0904L14.5 11.3901C14.5656 11.3338 14.6025 11.2551 14.6025 11.1725C14.6025 11.09 14.5656 11.0113 14.5 10.955L12.8262 9.25463C12.7305 9.17211 12.591 9.14961 12.4707 9.19712C12.3504 9.24463 12.2725 9.3534 12.2725 9.47217V10.3475L2.9375 10.3541C2.69551 10.3541 2.5 10.5329 2.5 10.7542V11.3901C2.5 11.6114 2.69551 11.7902 2.9375 11.7902L12.2725 11.9001V12.8729C12.2725 12.9929 12.3504 13.1004 12.4707 13.1479Z" fill="#FFFDFD"/>
</g>
<defs>
<clipPath id="clip0_1_9">
<rect width="16" height="16" fill="white"/>
</clipPath>
</defs>
</svg>
