<svg width="16" height="16" viewBox="0 0 16 16" fill="none" xmlns="http://www.w3.org/2000/svg">
<g clip-path="url(#clip0_1_15)">
<rect width="16" height="16" fill="white"/>
<circle cx="8" cy="8" r="8" fill="#5EA226"/>
<path d="M13 7.25C12.5399 7.25 12.1667 7.58594 12.1667 8C12.1667 8.41406 12.5399 8.75 13 8.75V10C13 10.5516 12.5017 11 11.8889 11H4.11111C3.4974 11 3 10.5516 3 10V8.75C3.46024 8.75 3.83333 8.41406 3.83333 8C3.83333 7.58594 3.46024 7.25 3 7.25V6C3 5.44766 3.4974 5 4.11111 5H11.8889C12.5017 5 13 5.44766 13 6V7.25ZM4.11111 5.75C3.95764 5.75 3.83333 5.8625 3.83333 6V6.7C4.33142 6.95938 4.66667 7.44531 4.66667 8C4.66667 8.55469 4.33142 9.04063 3.83333 9.3V10C3.83333 10.1375 3.95764 10.25 4.11111 10.25H11.8889C12.0417 10.25 12.1667 10.1375 12.1667 10V9.3C11.6684 9.04063 11.3333 8.55469 11.3333 8C11.3333 7.44531 11.6684 6.95938 12.1667 6.7V6C12.1667 5.8625 12.0417 5.75 11.8889 5.75H4.11111Z" fill="white"/>
</g>
<defs>
<clipPath id="clip0_1_15">
<rect width="16" height="16" fill="white"/>
</clipPath>
</defs>
</svg>
