<svg width="16" height="16" viewBox="0 0 16 16" fill="none" xmlns="http://www.w3.org/2000/svg">
<g clip-path="url(#clip0_1_2)">
<circle cx="8" cy="8" r="8" fill="#329DDA"/>
<path d="M3 5.28571C3 4.57556 3.55957 4 4.25 4H11.75C12.4395 4 13 4.57556 13 5.28571V6.57143C13 7.28058 12.4395 7.85714 11.75 7.85714H5.96875V9.78571C5.96875 10.2297 6.31836 10.5893 6.75 10.5893H7.375V10.4286C7.375 9.71942 7.93555 9.14286 8.625 9.14286H11.75C12.4395 9.14286 13 9.71942 13 10.4286V11.7143C13 12.4234 12.4395 13 11.75 13H8.625C7.93555 13 7.375 12.4234 7.375 11.7143V11.5536H6.75C5.80078 11.5536 5.03125 10.7621 5.03125 9.78571V7.85714H4.25C3.55957 7.85714 3 7.28058 3 6.57143V5.28571ZM11.75 10.1071H8.625C8.45312 10.1071 8.3125 10.2518 8.3125 10.4286V11.7143C8.3125 11.8911 8.45312 12.0357 8.625 12.0357H11.75C11.9219 12.0357 12.0625 11.8911 12.0625 11.7143V10.4286C12.0625 10.2518 11.9219 10.1071 11.75 10.1071Z" fill="white"/>
</g>
<defs>
<clipPath id="clip0_1_2">
<rect width="16" height="16" fill="white" transform="matrix(-1 0 0 1 16 0)"/>
</clipPath>
</defs>
</svg>
